PathFileType	4	(X/Y/Z)	2014001\dynamic\2014001_C3_05.trc
DataRate	CameraRate	NumFrames	NumMarkers	Units	OrigDataRate	OrigDataStartFrame	OrigNumFrames
100.000000	100.000000	4	52	mm	100.000000	86	172
Frame#	Time	L_IAS			L_IPS			R_IPS			R_IAS			L_FTC			L_FLE			L_FME			L_FAX			L_TTC			L_FAL			L_TAM			L_FCC			L_FM1			L_FM2			L_FM5			R_FTC			R_FLE			R_FME			R_FAX			R_TTC			R_FAL			R_TAM			R_FCC			R_FM1			R_FM2			R_FM5			CV7			TV10			SXS			SJN			L_SIA			L_SRS			L_SAA			L_SAE			L_HLE			L_HME			L_UOA			L_RSP			L_UHE			L_HM2			L_HM5			R_SIA			R_SRS			R_SAA			R_SAE			R_HLE			R_HME			R_UOA			R_RSP			R_UHE			R_HM2			R_HM5			
		X1	Y1	Z1	X2	Y2	Z2	X3	Y3	Z3	X4	Y4	Z4	X5	Y5	Z5	X6	Y6	Z6	X7	Y7	Z7	X8	Y8	Z8	X9	Y9	Z9	X10	Y10	Z10	X11	Y11	Z11	X12	Y12	Z12	X13	Y13	Z13	X14	Y14	Z14	X15	Y15	Z15	X16	Y16	Z16	X17	Y17	Z17	X18	Y18	Z18	X19	Y19	Z19	X20	Y20	Z20	X21	Y21	Z21	X22	Y22	Z22	X23	Y23	Z23	X24	Y24	Z24	X25	Y25	Z25	X26	Y26	Z26	X27	Y27	Z27	X28	Y28	Z28	X29	Y29	Z29	X30	Y30	Z30	X31	Y31	Z31	X32	Y32	Z32	X33	Y33	Z33	X34	Y34	Z34	X35	Y35	Z35	X36	Y36	Z36	X37	Y37	Z37	X38	Y38	Z38	X39	Y39	Z39	X40	Y40	Z40	X41	Y41	Z41	X42	Y42	Z42	X43	Y43	Z43	X44	Y44	Z44	X45	Y45	Z45	X46	Y46	Z46	X47	Y47	Z47	X48	Y48	Z48	X49	Y49	Z49	X50	Y50	Z50	X51	Y51	Z51	X52	Y52	Z52	

87	0.86	375.4609985351564	881.9545288085942	871.3099975585942	307.1773376464845	919.743530273438	691.8096923828127	216.8882141113282	916.2393188476567	687.918395996094	137.0018157958985	889.4918823242192	861.8521118164067	431.7358703613284	793.140502929688	799.9213867187505	386.0480041503909	438.2651977539065	829.4414672851567	269.7400817871095	436.140563964844	843.6290893554692	388.7887268066409	376.1247558593751	808.6589355468755	336.9392395019532	356.8688354492189	866.191528320313	340.3511047363282	63.32530593872073	756.4995117187502	251.2924957275392	71.36747741699222	778.3295288085942	295.1502990722657	23.06387519836426	710.7297363281252	272.7723388671876	25.49115943908693	893.126831054688	334.9488220214845	36.87655639648439	899.7665405273442	378.8046875000001	25.19778633117677	844.099487304688	79.78948974609378	790.5369262695317	774.2099609375005	74.92814636230472	455.7844543457034	872.4677734375005	190.9774932861329	431.7943115234377	910.604858398438	73.0680847167969	411.908386230469	833.5167846679692	108.9135437011719	368.074188232422	893.589721679688	128.2522277832032	179.1335754394532	628.9913330078127	202.1157684326173	159.8864898681641	681.6622314453127	193.6508026123048	165.7906494140626	582.9332275390627	163.8587493896485	49.20708084106448	720.136901855469	107.7402114868165	66.65048980712893	715.5847778320315	80.96128082275393	86.85469818115237	660.340515136719	254.6812591552736	1384.315795898438	717.7937011718752	265.4721679687501	1150.763793945313	663.0675048828127	263.330291748047	1164.80615234375	897.0026855468755	257.5779418945314	1325.796630859375	848.3068847656255	360.9747619628907	1192.915893554688	662.5679931640627	346.1572265625001	1323.67578125	678.3641357421877	453.6198730468752	1328.649291992188	754.3980102539065	435.8335876464846	1340.042358398438	793.7819824218755	525.700866699219	1058.720336914063	792.655639648438	453.5919189453127	1020.498107910157	763.1337890625002	504.3218383789065	1019.6845703125	762.629821777344	485.926940917969	844.419067382813	921.2219238281255	555.366149902344	836.5006713867192	880.8234863281255	495.4479675292971	769.6654663085942	965.4043579101567	562.8331298828127	760.0337524414065	890.294799804688	153.7268676757813	1192.453491210938	651.025329589844	172.6009521484376	1314.60986328125	676.4319458007815	66.86658477783206	1314.132202148438	747.741149902344	76.56092834472659	1320.097290039063	796.9896850585942	16.66087150573731	1018.209777832032	744.6635742187502	94.63088989257815	1003.925170898438	722.6003417968752	48.45019912719729	997.461303710938	715.8387451171877	42.15175247192384	804.2431030273442	829.8605957031255	-18.35155868530274	807.070434570313	775.5945434570317	28.90916633605958	710.6204223632815	847.563354492188	-18.35851097106934	729.589050292969	758.6631469726565	
88	0.87	376.6866455078126	881.8270874023442	881.4478149414067	307.9386291503907	920.3122558593755	702.394470214844	217.5438842773439	917.0968627929692	698.5946044921877	138.3085021972657	891.0756225585942	872.8507690429692	432.2361145019534	792.951293945313	809.3551635742192	386.385925292969	437.970886230469	832.1509399414067	270.1254882812501	435.5341796875002	846.5129394531255	389.1144104003909	376.1016845703126	810.8016967773442	337.2102966308595	356.3580322265626	868.0756225585942	340.3256225585939	63.39426422119143	756.7082519531252	251.2481384277345	71.58840942382815	778.577270507813	295.1277160644532	23.45295333862305	710.8787841796877	272.8300170898439	25.49132156372072	893.335083007813	334.9281005859376	36.83585357666017	900.0156250000005	378.8619689941407	25.1970615386963	844.184204101563	79.97534179687503	792.2644653320317	786.1523437500005	75.72829437255862	458.9886779785159	891.2097778320317	191.7219390869141	436.1539611816409	929.6860961914067	73.95314788818362	413.2680969238284	853.7616577148442	109.6400299072266	372.1878967285157	915.6567993164067	128.3501892089844	169.5178222656251	660.8902587890627	202.1302947998048	153.2677001953126	714.465515136719	193.5072631835939	153.1362609863282	615.0113525390627	163.3509521484376	46.19161987304689	760.3035278320315	107.5171661376954	63.72969055175784	754.8144531250002	80.71036529541018	79.91439056396487	698.388610839844	255.1129913330079	1385.078247070313	729.4034423828127	266.8885498046876	1151.704345703125	674.216979980469	263.4620056152345	1165.227294921875	908.2190551757817	257.3392028808595	1326.36181640625	859.8490600585942	362.7723999023439	1194.264892578125	674.7058105468752	347.2246398925782	1324.90185546875	690.3577880859377	454.0999145507815	1330.324340820313	767.4853515625002	435.7390136718752	1341.566650390625	806.7037963867192	526.9511718750002	1060.702392578125	808.4516601562505	455.3899536132815	1021.793579101563	778.528442382813	506.254577636719	1020.806579589844	778.8488769531255	484.1731262207034	849.528442382813	941.7169799804692	553.9927978515627	840.0488281250005	902.4667358398442	492.6054382324221	776.2318725585942	988.381469726563	560.7944946289065	763.8350219726565	914.1520996093755	155.3278503417969	1193.178344726563	661.5259399414065	173.5543518066407	1315.146850585938	687.4839477539065	67.41052246093753	1314.489624023438	757.9599609375002	76.57379913330081	1320.332275390625	807.3865356445317	18.39631462097169	1018.750305175782	751.6601562500002	96.81850433349615	1004.8994140625	730.5566406250002	50.64104843139651	998.6043090820317	723.073425292969	42.12783050537111	803.618530273438	833.4452514648442	-17.31019020080567	807.469360351563	778.4205932617192	28.91612815856935	709.2024536132815	848.6326293945317	-17.25823974609376	730.4320068359377	759.7584228515627	
89	0.88	377.8412475585939	881.5009765625005	891.5505981445317	308.5465393066407	920.6724243164067	712.936950683594	218.0740966796876	917.6896362304692	709.2578735351565	139.5151367187501	892.3657836914067	883.8451538085942	432.6890563964846	792.6664428710942	818.6967163085942	386.7180175781252	437.6803894042971	834.8061523437505	270.531951904297	434.8907165527346	849.376098632813	389.456970214844	376.1057739257814	812.9048461914067	337.5142211914064	355.8526611328126	869.9166870117192	340.2923583984376	63.46019363403323	756.8978271484377	251.2117004394532	71.84514617919925	778.802124023438	295.087371826172	23.85226058959962	710.9792480468752	272.8873901367189	25.53310966491701	893.544799804688	334.9183959960939	36.82158660888673	900.239624023438	378.925018310547	25.20189476013185	844.2402343750005	80.09780883789065	793.708374023438	798.0208129882817	76.63809204101565	461.8361816406252	909.4142456054692	192.6246643066407	440.2143554687502	948.0466918945317	74.89189910888675	414.1108398437502	873.5805053710942	110.5459060668946	376.094696044922	937.2856445312505	128.3458404541016	159.5216827392579	693.5161132812502	202.0707397460939	146.3809051513672	747.923034667969	193.2693939208986	140.0282897949219	648.0964965820315	162.764877319336	43.44560623168947	800.933227539063	107.233512878418	60.89777755737308	794.333618164063	80.39773559570315	72.99710083007815	736.9609985351565	255.5040740966798	1385.612915039063	741.0235595703127	268.2022094726564	1152.421630859375	685.3674926757815	263.5905761718751	1165.415405273438	919.454467773438	257.0930175781251	1326.681884765625	871.3936157226567	364.4472045898439	1195.360961914063	686.7517089843752	348.2031250000001	1325.860229492188	702.3242797851565	454.5046997070315	1331.72119140625	780.4710083007817	435.6197814941409	1342.822631835938	819.537719726563	528.1467285156252	1062.441528320313	824.1939086914067	457.1485290527346	1022.840209960938	793.9225463867192	508.1211242675784	1021.712158203125	795.0303344726567	482.3199768066409	854.5270385742192	961.9672241210942	552.481140136719	843.5068359375005	923.9241333007817	489.5728454589846	782.6994018554692	1011.0166015625	558.532897949219	767.5942993164065	937.7515258789067	156.8908233642579	1193.622314453125	672.0621337890627	174.4565582275391	1315.440673828125	698.5720825195315	67.93835449218753	1314.58740234375	768.1981811523442	76.56699371337893	1320.312377929688	817.7885742187505	19.96163558959962	1019.090026855469	758.6055297851565	98.80394744873053	1005.626892089844	738.4919433593752	52.66166305541995	999.4987792968755	730.2769775390627	41.97006225585939	802.9906616210942	837.2952270507817	-16.28501701354981	807.7060546875005	781.4155273437505	28.76317596435548	707.9058227539065	850.221069335938	-16.0599594116211	731.096862792969	761.2271118164065	
90	0.89	378.9006347656251	880.974731445313	901.6455688476567	309.0042419433595	920.829223632813	723.4539184570315	218.4813842773439	918.0190429687505	719.9176025390627	140.5964508056641	893.3323364257817	894.8339843750005	433.0979309082034	792.2998657226567	827.959838867188	387.0390930175784	437.3930969238284	837.4116821289067	270.9638977050782	434.2151489257815	852.2416381835942	389.8066406250002	376.132781982422	814.970825195313	337.8517150878907	355.3461303710939	871.7204589843755	340.2412719726564	63.52446365356448	757.0642700195315	251.1750488281251	72.12882232666018	779.0039672851567	295.0183410644532	24.2572593688965	711.0281372070315	272.9495239257814	25.60677909851076	893.748657226563	334.927215576172	36.82546615600587	900.426391601563	378.9893188476564	25.20219230651857	844.2600708007817	80.17134094238284	794.8274536132817	809.803100585938	77.65191650390628	464.2536926269534	927.0717163085942	193.6681671142579	443.8901367187502	965.670532226563	75.8852233886719	414.4164733886721	892.973754882813	111.6261672973633	379.7326660156251	958.432250976563	128.239730834961	149.3859863281251	726.8769531250002	201.9397735595704	139.4228515625001	782.0055541992192	192.9434661865236	126.7199096679688	682.2263793945315	162.0578155517579	41.14227294921876	841.9298706054692	106.8353805541993	58.35676956176761	834.0663452148442	79.98695373535159	66.36600494384768	775.9999389648442	255.8590850830079	1385.916870117188	752.6587524414065	269.4016113281251	1152.908569335938	696.5225219726565	263.7125244140626	1165.35791015625	930.7068481445317	256.8416442871095	1326.745849609375	882.9448852539067	365.9938964843751	1196.205322265625	698.6951293945315	349.0946350097657	1326.545043945313	714.2774658203127	454.8411254882815	1332.826049804688	793.3684692382817	435.4803466796877	1343.796875	832.292846679688	529.2786254882815	1063.9169921875	839.880004882813	458.8525695800784	1023.620300292969	809.319213867188	509.9075622558596	1022.383850097657	811.1625366210942	480.364196777344	859.3747558593755	981.9484863281255	550.839294433594	846.8516235351567	945.1762084960942	486.367370605469	789.0273437500005	1033.277954101563	556.0778808593752	771.2856445312505	961.0805053710942	158.4097442626954	1193.7880859375	682.6289062500002	175.3067321777344	1315.493896484375	709.6982421875002	68.44562530517581	1314.417602539063	778.471557617188	76.54248809814456	1320.023193359375	828.2117309570317	21.35257720947266	1019.219787597657	765.5439453125002	100.5667037963868	1006.100830078125	746.411804199219	54.49299240112308	1000.137878417969	737.4755859375002	41.71703338623048	802.3151855468755	841.427124023438	-15.2803430557251	807.747192382813	784.6110229492192	28.46949958801271	706.6851806640627	852.3591918945317	-14.76737499237061	731.5301513671877	763.099060058594	
